# xmcd CD database file
#
# Track frame offsets:
#	150
#	11230
#	23100
#	36600
#	50452
#	62395
#	73478
#	86572
#	101435
#	115779
#
# Disc length: 1664 seconds
#
# Revision: 0
# Processed by: cddbd v1.5.2PL0 Copyright (c) Steve Scherf et al.
# Submitted via: CDex 1.51
#
DISCID=86067e0a
DTITLE=John Reese - Any Friend of Mine, Before
DYEAR=2003
DGENRE=Country
TTITLE0=Room at the Top
TTITLE1=Bein' Caribbean
TTITLE2=Big Country Mama
TTITLE3=We've Found Ourselves a Hero
TTITLE4=Doin' You Know What
TTITLE5=Oklahoma Family Man
TTITLE6=Love is What You Need
TTITLE7=Love All Night
TTITLE8=Somethin' Specials (in the air)
TTITLE9=With a Little Help From Jesus
EXTD=YEAR: 2003
EXTT0=
EXTT1=
EXTT2=
EXTT3=
EXTT4=
EXTT5=
EXTT6=
EXTT7=
EXTT8=
EXTT9=
PLAYORDER=
